<svg width="189" height="180" viewBox="0 0 189 180" fill="none" xmlns="http://www.w3.org/2000/svg">
<g opacity="0.75">
<path d="M139.328 54.2007C149.39 67.5146 155.39 87.4853 153.359 104.22C152.898 108.473 148.559 116.887 149.39 119.845C149.759 121.232 157.79 132.974 159.267 134.823C163.052 139.539 170.436 146.565 176.436 147.86C183.082 149.247 186.036 148.692 187.052 141.48C188.898 127.889 184.006 107.086 178.19 94.697C170.436 78.1471 155.944 61.9671 139.328 54.2007Z" fill="#523C14"/>
<path d="M126.313 49.9474C125.76 49.1153 126.406 48.3756 124.375 48.8379C123.175 64.833 112.375 75.743 105.267 88.687C101.575 95.4364 96.9594 104.312 100.006 111.801C102.959 119.198 107.298 117.071 112.375 120.677C116.529 123.543 118.375 128.998 122.16 132.234C135.729 119.66 144.683 103.11 140.99 84.1566C139.329 76.2053 130.744 56.7893 126.313 49.9474Z" fill="#523C14"/>
<path d="M73.7924 159.697C73.7924 166.724 74.0694 175.692 80.5309 179.945C86.1617 181.055 100.008 164.967 103.146 160.344C105.27 157.293 115.977 139.079 113.577 136.675C109.885 136.028 110.162 139.911 107.208 141.298C104.07 142.777 99.2695 142.87 96.1311 141.298C94.2849 140.374 92.7156 137.6 91.0541 137.6C88.4694 137.507 86.4387 140.743 81.731 139.911C73.2386 138.34 74.9924 129.556 66.2232 129.556C60.8693 129.556 60.777 131.683 58.2846 135.843C47.023 154.612 46.8384 176.894 73.7924 159.697Z" fill="#523C14"/>
<path d="M106.374 33.4899C92.7123 28.4047 74.9891 35.5239 65.2968 45.6018C62.066 48.9302 49.9736 64.1857 60.1275 64.9254C61.9737 65.0178 64.8352 63.7234 65.8506 64.3706C66.866 64.9253 67.6968 67.2368 69.0814 68.2538C85.143 80.7356 104.897 64.1857 111.82 49.2076C115.789 40.5166 116.343 37.1882 106.374 33.4899Z" fill="#523C14"/>
<path d="M17.1112 57.2526C11.3881 62.3377 -4.85815 81.6613 1.41881 89.4277C6.95731 96.1771 26.342 91.8316 33.9113 90.5372C34.0959 87.8559 33.7267 85.0822 34.1882 82.401C34.9267 78.2404 38.5268 75.0968 39.0806 72.2307C40.5575 65.4813 37.6037 62.8925 43.6037 56.4205C47.8499 51.89 49.973 49.0239 53.8499 44.4935C56.1576 41.8122 59.2961 40.2405 61.4192 37.3743C45.7268 38.2989 28.8344 46.8049 17.1112 57.2526Z" fill="#523C14"/>
<path d="M9.17373 21.2861C17.1122 23.505 25.9738 28.3128 34.3739 28.2204C41.5739 28.1279 51.9125 22.9503 60.0356 22.2107C70.651 21.2861 81.1742 22.6729 91.4204 24.7995C71.6664 1.7776 24.6815 -15.4195 9.17373 21.2861Z" fill="#523C14"/>
<path d="M44.9948 135.75C46.9333 134.086 52.7487 127.799 53.6718 125.765C55.6103 121.327 50.8103 117.536 50.6257 112.821C44.6256 112.358 39.4563 108.198 38.8102 102.096C38.5332 100.062 40.4717 96.7331 37.8871 95.901C28.6563 97.9351 15.1793 105.979 10.8408 114.762C4.4715 127.706 12.2254 128.169 23.3947 126.042C21.1793 131.405 25.9793 142.962 32.5332 142.592C35.764 142.407 42.5025 137.969 44.9948 135.75Z" fill="#523C14"/>
<path d="M120.964 173.748C126.41 173.008 132.502 163.947 133.518 164.132C138.595 168.385 140.995 178.001 149.302 175.505C154.472 173.933 153.826 159.325 153.364 154.979C152.995 151.466 145.425 127.889 143.302 127.797C134.995 134.916 124.564 139.816 119.671 150.264C117.548 154.887 110.718 175.135 120.964 173.748Z" fill="#523C14"/>
<path d="M128.717 35.0629L127.886 39.0386C136.194 41.0727 144.871 45.2332 152.071 49.8561C157.333 53.277 170.625 65.9436 174.779 66.9607C189.456 70.8439 192.871 61.0434 184.564 50.1335C171.733 33.3987 147.917 30.9024 128.717 35.0629Z" fill="#523C14"/>
<path d="M79.3287 113.373C82.7442 116.332 89.6673 111.062 84.9596 107.271C80.3441 103.573 76.2826 110.692 79.3287 113.373Z" fill="#523C14"/>
<path d="M89.6672 91.2758C91.1441 90.3513 92.5287 83.1396 85.8825 84.3416C79.144 85.451 84.6825 94.4194 89.6672 91.2758Z" fill="#523C14"/>
<path d="M73.8847 96.2701C75.0847 88.4112 61.7924 93.1266 67.0539 98.3042C69.177 100.431 73.3309 99.5061 73.8847 96.2701Z" fill="#523C14"/>
<path d="M64.6527 111.896C60.5911 113.282 62.9912 119.015 67.0527 118.645C72.5912 118.275 70.4681 109.954 64.6527 111.896Z" fill="#523C14"/>
<path d="M49.6989 83.2321C53.022 79.9961 47.3912 75.0034 43.9758 78.3318C40.8373 81.3829 45.822 86.9304 49.6989 83.2321Z" fill="#523C14"/>
<path d="M49.1478 100.152C50.6247 102.371 58.0093 100.522 55.7016 95.899C53.3939 91.1836 46.1939 95.4367 49.1478 100.152Z" fill="#523C14"/>
<path d="M59.7618 77.3146C57.3618 81.1054 63.5464 86.0981 66.3156 81.6601C69.1772 77.0372 61.331 74.8183 59.7618 77.3146Z" fill="#523C14"/>
<path d="M79.2368 123.453C75.7291 129.185 87.9138 131.404 86.0676 124.839C85.2368 121.881 80.1598 121.973 79.2368 123.453Z" fill="#523C14"/>
<path d="M103.977 132.699C107.854 130.295 104.161 124.285 99.6382 127.059C97.1458 128.631 99.8228 135.288 103.977 132.699Z" fill="#523C14"/>
</g>
</svg>
