<svg width="80" height="80" viewBox="0 0 80 80" fill="none" xmlns="http://www.w3.org/2000/svg">
<path d="M36.7638 45.2391C36.9202 45.2391 37.0661 45.2287 37.2121 45.2183V50.0039H37.3789V45.2183C37.6917 45.1974 38.0045 45.1557 38.3173 45.0932C39.3078 44.8951 40.2566 44.5093 41.0907 43.9671L40.7257 43.4041C40.048 44.0818 39.2348 44.5823 38.3173 44.8534C38.0149 44.9368 37.7021 44.9993 37.3789 45.0306V36.6167L43.4782 45.9064H43.6659L49.5254 35.72V46.1879C50.5993 45.2079 51.204 43.8212 51.204 42.3615V35.0841H49.7131L44.2811 44.5197L38.1609 35.0841H36.3676L37.2017 36.3665V45.041C37.0557 45.0515 36.9098 45.0723 36.7534 45.0723C36.5865 45.0723 36.4301 45.0619 36.2738 45.0515C32.8123 44.77 30.5706 41.3919 30.5706 37.6385C30.5706 33.6974 33.0208 30.2046 36.7534 30.2046C40.4651 30.2046 42.9361 33.6974 42.9361 37.6385C42.9361 38.5143 42.811 39.3796 42.5712 40.1824L43.4991 41.6108C44.2706 40.4535 44.7294 39.0981 44.7294 37.6385C44.7294 33.4159 40.9551 30.0065 36.7534 30.0065C32.5412 30.0065 28.7773 33.4159 28.7773 37.6385C28.7773 41.6734 32.2493 44.9889 36.2633 45.2287C36.4406 45.2287 36.597 45.2391 36.7638 45.2391Z" fill="#523C14"/>
<path d="M40.4223 0H40.0052C31.4453 0 23.5006 2.68995 16.9947 7.27747C16.88 7.36088 16.7653 7.43386 16.661 7.50684C6.56849 14.7739 0 26.618 0 39.9948C0 50.9006 4.37899 60.8054 11.4584 68.0203C18.7254 75.4125 28.8284 80 40.0052 80H40.318C40.5995 80 40.8914 79.9896 41.1834 79.9792C41.517 79.9792 41.8611 79.9583 42.1947 79.9374C45.5936 79.7081 48.9196 78.8636 51.62 76.9973C52.6939 76.2779 53.6739 75.3812 54.508 74.3073C55.8634 74.4741 57.198 74.3907 58.4804 74.0884H58.4908C61.8793 73.3377 64.955 71.2107 67.5095 68.9066C68.8336 67.7075 70.0639 66.4147 71.1899 65.0489C71.2837 64.9342 71.388 64.8195 71.4714 64.6944C76.82 57.8965 80 49.3158 80 39.9948C80 18.0373 62.3276 0.229376 40.4223 0ZM65.7057 69.0317C62.6613 71.5757 59.1477 73.5045 55.853 73.2543C55.217 73.2021 54.6123 72.8998 53.9763 72.9728C53.7782 73.0353 53.0901 74.0988 52.8503 74.3595C50.4418 76.9973 46.8865 78.2588 43.0288 78.655C43.0184 78.6446 43.008 78.6446 42.9871 78.655C42.1113 78.7176 41.2251 78.7593 40.3284 78.7593C39.9531 78.7593 39.5777 78.7697 39.2024 78.7593C28.0255 78.5299 18.006 73.5775 11.0726 65.81C4.95243 58.96 1.23029 49.9101 1.23029 39.9948C1.23029 30.6217 4.54581 22.0305 10.0821 15.3265C10.1238 15.2535 10.1864 15.1909 10.2489 15.1284C17.5785 6.70403 28.1507 1.82458 39.5777 1.37625C41.3815 1.30327 43.1748 1.3554 44.9472 1.53265C44.9576 1.53265 44.9576 1.53265 44.9681 1.53265C64.0375 3.97237 78.7801 20.2581 78.7801 39.9948C78.7801 51.3697 73.8798 61.6082 66.0811 68.698C65.956 68.8127 65.8308 68.917 65.7057 69.0317Z" fill="#523C14"/>
<path d="M70.0529 54.1437L69.0937 54.0498C69.1563 59.7842 66.5289 65.9774 61.0969 68.4484C65.1318 64.622 68.1345 58.7207 66.1118 53.1115L65.1005 52.8508C66.2369 56.1976 65.601 59.9302 64.183 63.0893C62.9631 65.8105 60.3149 69.0531 57.0932 69.1574C58.8969 67.7185 59.9083 66.3214 59.0742 63.9338C56.9472 57.8762 47.9494 61.7548 43.7164 62.5263C40.8597 63.0476 37.9508 63.1727 35.0731 62.7244C30.642 62.0363 24.2612 59.4506 21.394 55.8953C18.7874 52.6736 17.4112 47.1477 19.7884 43.4464C19.4547 43.1962 18.4747 44.6871 18.3391 44.9478C16.4937 48.2737 17.8491 51.6727 19.4756 54.7171C19.5173 54.7901 20.1533 55.6242 19.7467 55.4469C19.6945 55.4261 19.0481 54.8422 18.9438 54.7484C16.525 52.4233 14.4085 48.5135 14.5961 45.0937C14.69 43.2692 15.3781 41.8304 16.4937 40.4124C16.2122 39.6409 15.0236 40.11 14.8047 40.0058C14.4397 39.8181 14.6066 39.1508 13.7516 39.2447C13.3033 39.2968 13.2824 39.9954 13.2199 40.4124C12.6152 44.2492 13.762 49.0244 15.8056 52.2982C17.6197 55.2071 20.1533 57.063 22.9058 59.0023L20.9248 58.2829C17.578 56.917 13.9393 58.2724 14.6066 62.3595C14.8151 63.0997 15.0862 63.5168 15.0862 63.5168C15.0862 63.5168 13.4805 58.4184 23.0518 59.9615C27.3578 61.3377 31.5074 63.6732 36.0636 64.1528C39.4313 64.5073 42.8093 63.913 45.9998 62.8704C46.0519 63.131 45.9476 63.0476 45.8017 63.1206C42.0274 65.1537 40.4947 66.9679 35.7717 66.0399C33.822 65.6646 30.6837 64.1736 28.8591 65.0807C28.5672 65.2267 28.3065 65.4039 28.2961 65.7688H30.3501C30.8818 65.7688 32.6021 66.4882 33.259 66.6655C39.3583 68.3233 40.4739 66.801 45.3116 63.8296C48.2622 62.0154 52.8706 60.3577 56.1757 62.151C58.9386 63.6419 59.022 67.8749 55.8629 68.7716C55.3625 68.9176 54.7056 68.855 54.2781 68.9801C54.1843 69.0114 54.0905 69.1052 54.1113 69.2095C57.1349 71.3051 61.1803 70.0749 63.8598 67.9583C67.8739 64.7784 70.2302 59.2421 70.0529 54.1437Z" fill="#523C14"/>
<path d="M47.0945 66.4557C47.1884 66.5495 47.6159 66.122 47.7722 66.0803C48.4291 65.9031 48.7836 66.4452 48.648 67.0604C48.3874 68.2907 45.8017 69.3124 44.6965 69.6044C36.8039 71.6792 26.0545 67.1229 19.7988 62.3895C19.3297 62.035 18.5477 61.2009 18.1202 60.9611C17.9847 60.8881 17.8283 60.7838 17.6823 60.8985L17.7344 61.253C24.4176 67.5713 34.7917 72.5654 44.1752 70.4802C46.9277 69.865 47.8557 69.3542 49.5656 67.1751C49.6281 67.0917 49.5655 66.9874 49.7949 67.05C50.5769 69.302 47.9286 70.8034 46.1979 71.5019C37.1897 75.1303 25.5958 69.8755 18.4539 64.3496C18.1723 64.1306 16.8586 62.9108 16.6501 62.9525C16.4625 63.088 16.4416 63.2444 16.5876 63.4112C23.7399 69.7816 34.458 75.37 44.3003 73.0033C47.1571 72.3152 52.2868 70.1674 50.5143 66.3827L49.7011 65.3505C53.809 66.8414 51.6925 70.9181 49.0338 72.7322C39.963 78.9254 24.3134 72.4403 16.7544 66.1429C7.50638 58.4484 1.27152 45.1446 4.77472 33.0607C4.97282 32.3934 5.65052 31.0067 5.70265 30.475C5.73393 30.1413 5.60881 29.766 5.4837 29.4636L5.17091 29.3698C5.01452 29.4011 4.89983 29.4845 4.81642 29.6096C4.61833 29.9015 4.26384 31.0171 4.13872 31.4237C1.063 40.8594 3.50273 51.4524 9.13286 59.3763C16.0663 69.1456 29.5577 76.8401 41.7668 76.0477C46.1145 75.7662 53.2773 73.0033 52.8081 67.613C52.4745 64.1411 48.1059 62.598 47.0945 66.4557Z" fill="#523C14"/>
<path d="M10.8543 20.55C11.1358 20.3936 12.5746 18.3813 12.9499 17.9434C17.1308 13.1057 26.9314 4.90031 33.698 8.79969C37.7642 11.1456 34.7719 15.5663 36.1899 19.3093C39.1196 27.0663 47.9193 19.8827 51.7353 26.3678L52.413 27.7336C52.5902 25.4607 50.6197 23.3546 48.5136 22.7812C45.1043 21.8533 41.6115 23.3859 38.5566 20.8315C34.0212 17.0259 39.7661 10.8954 33.9378 7.74665C26.7438 3.85769 16.6617 11.8233 12.1576 17.0259C11.8239 17.4117 9.7074 20.0287 9.7074 20.2789C9.68655 20.7481 10.5519 20.7272 10.8543 20.55Z" fill="#523C14"/>
<path d="M57.8654 8.92456C66.4149 12.7718 72.9416 21.2483 74.4743 30.5276C74.9435 33.3531 74.8496 36.0535 74.5056 38.8998C74.5056 39.2751 75.298 39.2022 75.4856 39.0249C75.6837 38.8477 75.788 37.9093 75.8088 37.5965C76.6221 26.2841 70.3455 14.8466 60.5345 9.26863C59.8985 8.90371 56.0825 6.94359 55.6134 7.36064C55.5404 7.62129 55.4465 7.9028 55.7072 8.09047C56.0304 8.33027 57.3754 8.70561 57.8654 8.92456Z" fill="#523C14"/>
<path d="M36.8978 57.1984C44.0293 59.2211 53.1209 55.2174 57.2809 49.2745C57.552 48.8783 59.1264 46.3552 58.8032 46.0424C58.6572 46.0528 58.4487 45.9903 58.3236 46.0633C58.2193 46.1258 57.2184 47.8566 56.989 48.1694C53.1105 53.4346 46.688 57.3131 39.9526 56.9378C37.638 56.8127 32.4875 55.5615 33.0297 52.4128C33.2069 51.3806 34.0723 50.974 34.6666 50.2442V50.0356C33.7491 49.3058 32.2373 51.0574 32.1122 51.8915C31.6743 54.7274 34.5623 56.5416 36.8978 57.1984Z" fill="#523C14"/>
<path d="M44.1964 54.4972C54.289 51.6301 61.6811 39.9527 57.9798 29.6621L57.0936 29.7038C61.3787 40.9224 52.0473 52.6414 41.0998 54.7058C39.88 54.9352 38.9625 54.9039 37.7426 54.956C37.6175 54.9664 37.3673 54.883 37.3986 55.0498C39.661 55.4252 42.0069 55.1228 44.1964 54.4972Z" fill="#523C14"/>
<path d="M36.9495 52.6523C36.3656 52.6106 34.9581 52.1206 34.6453 52.1519C33.634 52.2666 35.469 53.0068 35.7296 53.0694C42.7047 54.8523 51.2021 49.1179 54.2361 43.0394C55.7374 40.0367 56.436 35.616 55.6645 32.3317C55.5915 32.0085 55.4455 31.4559 55.1953 31.2474C55.2057 31.4351 55.2891 31.5915 55.2996 31.7896C55.4664 35.47 55.0702 39.5571 53.3499 42.8517C50.5035 48.2942 43.2365 53.1319 36.9495 52.6523Z" fill="#523C14"/>
<path d="M33.6035 58.4913C40.881 63.0997 50.473 59.6173 56.6453 54.7483C57.8652 53.7891 59.0538 52.4129 60.2632 51.5683C60.8471 51.1617 61.3371 50.8698 62.0982 50.9532C60.3675 49.1807 58.814 51.6622 57.6462 52.7569C51.891 58.1785 41.6004 62.2447 34.1248 58.0743C33.8329 57.9179 32.54 56.9587 32.3941 57.0525C32.0917 57.6051 33.1656 58.2202 33.6035 58.4913Z" fill="#523C14"/>
<path d="M56.3753 10.5612C55.4995 11.2493 57.1885 11.6455 57.689 11.9062C67.0621 16.8273 72.1605 26.8573 71.4098 37.3982C71.4307 37.6692 71.7747 37.8673 72.0145 37.7109C72.1397 37.5337 72.1918 37.3147 72.2126 37.1062C72.5046 34.1973 71.879 29.6828 71.0658 26.8573C69.0118 19.7467 63.3295 13.1677 56.3753 10.5612Z" fill="#523C14"/>
<path d="M11.896 35.8449C10.7595 34.3435 10.0818 32.0915 10.3112 30.2043C10.3633 29.7247 10.8534 28.7759 10.7595 28.4423C10.7178 28.2859 9.81074 26.9618 9.64392 26.7533C9.21645 26.2215 8.38235 25.4291 7.70465 25.2832C6.95397 25.1268 6.62033 25.1893 6.50564 26.0026C6.29712 27.5352 6.84971 29.8811 7.50656 31.2782C8.38236 33.1445 10.0193 34.9691 11.896 35.8449Z" fill="#523C14"/>
<path d="M13.3667 36.3249C13.4293 36.4187 13.3563 36.5021 13.5857 36.45C13.7212 34.6462 14.9411 33.416 15.7439 31.9563C16.161 31.1952 16.6823 30.1943 16.3382 29.3498C16.0046 28.5157 15.5145 28.7555 14.9411 28.3488C14.4719 28.0256 14.2634 27.4105 13.8359 27.0456C12.3033 28.4635 11.2919 30.3298 11.709 32.4672C11.8967 33.3638 12.8663 35.5533 13.3667 36.3249Z" fill="#523C14"/>
<path d="M32.6962 18.7463C32.4043 16.0146 30.1418 13.0536 27.1495 13.3455C25.3979 13.5123 22.5098 15.8061 21.1961 16.9947C20.7999 17.3491 19.1839 18.8609 18.9962 19.1946C18.8711 19.4031 18.819 19.6012 19.0588 19.7367L19.3924 19.695C21.9051 17.2762 28.1608 10.6243 30.8612 16.2231C31.6849 17.933 31.81 19.9036 31.0697 21.6656C30.465 23.1148 28.9219 24.3347 29.1409 26.0446C29.9124 24.8664 31.1323 24.074 31.8725 22.875C32.4877 21.8741 32.7066 20.894 32.8422 19.7367L35.5217 19.1842L35.3653 18.2771L32.6962 18.7463Z" fill="#523C14"/>
<path d="M47.9502 6.43308C47.1891 5.50515 46.647 5.17151 45.7503 6.15157C44.2385 7.80933 44.0091 10.4993 45.3124 12.3447C47.3455 12.1883 49.0137 9.84243 49.3682 7.97615C49.608 6.71458 49.5037 5.3279 47.9502 6.43308Z" fill="#523C14"/>
<path d="M32.7275 11.365C27.6604 7.64285 19.5696 14.5033 16.2437 18.142C15.9309 18.4756 14.5859 19.977 14.5859 20.2898C14.5859 20.7277 15.0343 20.8737 15.3575 20.6443C18.454 17.1828 22.7601 12.491 27.4831 11.4693C29.8186 10.9584 32.6962 11.6048 33.6763 14.0132C33.8326 14.4094 33.9578 15.2644 34.1454 15.5355C34.2497 15.6814 34.3748 15.5667 34.3957 15.4833C34.4686 15.1914 34.3957 14.3573 34.3957 13.982C34.3957 13.1583 33.3947 11.855 32.7275 11.365Z" fill="#523C14"/>
<path d="M19.2987 23.9483C19.2987 23.156 19.2674 22.1446 18.5376 21.665C17.9016 21.5399 16.3376 23.3541 15.9831 23.8754C15.7433 24.2194 14.5339 26.2734 14.805 26.5445C15.222 26.6174 15.1908 26.1796 15.5244 26.0232C15.8789 25.8563 16.421 25.8459 16.7755 26.0232C16.9841 26.1274 17.1613 26.4402 17.349 26.4402C17.6409 26.4506 17.8703 26.0857 18.402 26.1795C19.3612 26.3568 19.1631 27.3473 20.1536 27.3473C20.7583 27.3473 20.7688 27.1075 21.0503 26.6383C22.3223 24.5218 22.3431 22.0091 19.2987 23.9483Z" fill="#523C14"/>
<path d="M67.6252 51.6197C68.8346 51.2548 70.5237 49.4719 69.5019 48.1895C68.9806 47.5326 68.3863 48.0435 68.1048 47.8975C67.865 47.7724 67.7295 47.0739 67.5001 46.7924C66.8849 46.0104 65.7798 46.0834 65.1333 46.7715C63.5173 48.5231 64.4348 52.5893 67.6252 51.6197Z" fill="#523C14"/>
<path d="M15.6173 38.1804C17.1604 38.7538 19.1622 37.951 20.2569 36.8145C20.6218 36.4392 21.9877 34.7189 20.8408 34.6355C20.6323 34.625 20.3091 34.771 20.1944 34.698C20.0797 34.6355 19.9858 34.3748 19.8295 34.2601C18.0153 32.8526 15.7841 34.7189 15.0021 36.4079C14.5538 37.388 14.4913 37.7633 15.6173 38.1804Z" fill="#523C14"/>
<path d="M25.6999 35.5018C26.3463 34.9284 28.1813 32.7493 27.4723 31.8735C26.8468 31.1124 24.6573 31.6024 23.8023 31.7484C23.7815 32.0508 23.8232 32.3635 23.771 32.6659C23.6876 33.1351 23.281 33.4896 23.2184 33.8128C23.0516 34.5739 23.3853 34.8658 22.7076 35.5957C22.228 36.1065 21.9882 36.4297 21.5503 36.9406C21.2896 37.243 20.9351 37.4202 20.6953 37.7434C22.4678 37.6392 24.3757 36.68 25.6999 35.5018Z" fill="#523C14"/>
<path d="M54.0922 24.3034C54.3633 24.6475 55.2599 26.1488 55.4372 26.2531C55.7187 26.4199 56.0836 26.3991 56.1461 26.055C56.2713 25.4398 53.8211 22.4475 53.2894 21.8949C51.371 19.8827 49.2753 18.6628 46.4394 18.4543C44.4897 18.3083 41.8101 18.4647 41.4869 20.8523C42.0604 20.6855 42.4879 20.2372 43.0926 20.0078C47.1901 18.423 51.6629 21.1443 54.0922 24.3034Z" fill="#523C14"/>
<path d="M64.6014 43.7067C63.9446 42.7683 62.8707 43.8943 62.6205 43.7379C62.0158 42.6953 61.2651 42.4555 60.9314 43.8318C60.5561 45.3853 61.0878 47.5643 61.8906 48.9197C62.0783 49.2325 63.3399 50.932 63.7048 50.6505C63.2669 49.4098 63.2878 47.9814 63.7569 46.7511C64.1114 45.7919 65.3521 44.7806 64.6014 43.7067Z" fill="#523C14"/>
<path d="M26.597 39.5568C25.7003 39.3066 24.6994 38.7645 23.7506 38.7749C22.9374 38.7853 21.7697 39.3692 20.8522 39.4526C19.6531 39.5568 18.4646 39.4005 17.3073 39.1607C19.5385 41.7568 24.8454 43.696 26.597 39.5568Z" fill="#523C14"/>
<path d="M74.5466 48.9402C74.2547 48.9298 74.0566 49.1591 73.9628 49.1383C73.7959 49.107 73.2434 48.3042 72.5761 48.3668C71.5126 48.471 70.9496 50.2435 70.3866 50.9837C69.7193 51.8595 69.2084 52.0472 68.2492 52.4434C68.1658 52.4747 67.9573 52.5268 68.0511 52.6519C70.2302 53.6737 73.7334 52.7562 74.8177 50.525C75.0784 49.9828 75.4537 48.961 74.5466 48.9402Z" fill="#523C14"/>
<path d="M58.8874 14.8052C58.5434 14.5862 57.1671 13.7625 56.8543 13.8564L56.6875 14.0962C56.6875 14.3568 57.6988 14.7217 57.9804 14.899C62.3385 17.6306 65.4038 22.6769 66.5402 27.6398C66.7279 28.4634 66.9364 30.7468 67.2909 31.2889C67.3952 31.4453 67.6246 31.5809 67.7392 31.7373C67.9582 31.5809 67.8956 31.3202 67.8852 31.0908C67.6558 24.8664 64.2465 18.1207 58.8874 14.8052Z" fill="#523C14"/>
<path d="M12.3962 59.0962C12.5422 59.263 13.1782 60.1388 13.3971 59.9512L13.4493 59.2526C8.80962 54.0708 6.88078 47.3981 7.08931 40.4959C7.09973 40.1414 7.26655 39.7765 7.19357 39.4012C7.14144 39.1301 6.47416 38.7339 6.39075 39.2031C6.15095 40.5376 6.27606 42.7063 6.39075 44.1034C6.83908 49.6188 8.8409 54.8528 12.3962 59.0962Z" fill="#523C14"/>
<path d="M22.5516 26.6495C22.3326 26.8371 21.6758 27.5461 21.5715 27.7755C21.3526 28.2759 21.8947 28.7034 21.9156 29.2352C22.5933 29.2873 23.1771 29.7565 23.2501 30.4446C23.2814 30.674 23.0625 31.0493 23.3544 31.1431C24.397 30.9138 25.9192 30.0067 26.4093 29.0162C27.1287 27.5565 26.2529 27.5044 24.9913 27.7442C25.2415 27.1395 24.6994 25.8362 23.9591 25.8779C23.5942 25.8988 22.8331 26.3992 22.5516 26.6495Z" fill="#523C14"/>
<path d="M13.9712 22.3638C13.3561 22.4473 12.668 23.469 12.5533 23.4482C11.9798 22.9686 11.7088 21.8842 10.7704 22.1657C10.1865 22.343 10.2595 23.9903 10.3116 24.4804C10.3534 24.8766 11.2083 27.5352 11.4481 27.5456C12.3865 26.7428 13.5646 26.1902 14.1172 25.0121C14.357 24.4908 15.1285 22.2074 13.9712 22.3638Z" fill="#523C14"/>
<path d="M10.197 39.9012C10.1449 39.5988 9.81125 39.578 9.56102 39.6718C9.27951 39.7657 9.20653 40.8813 9.18567 41.2045C8.89374 46.1986 10.4577 52.5377 13.4083 56.5935C13.5751 56.8229 14.159 57.7195 14.43 57.657L14.6698 57.2295C12.178 53.8306 10.5515 49.7435 10.1866 45.5105C10.1345 44.9162 10.2283 44.3115 10.0823 43.7172C9.90508 42.5599 10.3951 40.9751 10.197 39.9012Z" fill="#523C14"/>
<path d="M60.0955 67.0505C60.3353 67.0713 60.45 66.8419 60.5751 66.6855C62.2224 64.6316 64.6622 58.6365 62.4518 56.4887C61.2215 55.2793 58.9695 56.3115 58.1875 57.6043C58.615 57.6043 58.9799 57.375 59.4386 57.3541C61.9096 57.2394 62.3371 59.5645 62.0869 61.5037C61.8575 63.3596 61.013 65.4344 60.0955 67.0505Z" fill="#523C14"/>
<path d="M49.3583 11.1562C48.1489 11.6775 47.6693 13.1267 46.1992 13.0433C47.5859 14.5134 50.5574 14.2319 52.1734 13.2622C52.8407 12.866 53.4454 12.4282 52.8094 11.6879C52.0796 10.8642 50.3176 10.7495 49.3583 11.1562Z" fill="#523C14"/>
<path d="M39.588 25.8055C41.7567 26.2746 44.2485 25.6908 45.7916 27.703L46.3859 29.048C47.1261 27.2026 45.3641 25.5135 43.6855 25.0965C42.3405 24.7629 40.8183 24.9818 39.4629 24.7211C37.6488 24.3771 36.2516 23.324 35.3029 21.781C35.1882 21.5829 34.8233 20.6966 34.7711 20.6654L34.4896 20.6966C35.1048 23.4387 36.8459 25.2112 39.588 25.8055Z" fill="#523C14"/>
<path d="M13.0954 38.0033L13.1892 37.555C12.2509 37.3256 11.2708 36.8565 10.4576 36.3351C9.8633 35.9494 8.36193 34.521 7.89275 34.4063C6.23499 33.9684 5.84922 35.0736 6.78758 36.3039C8.23681 38.191 10.9268 38.4725 13.0954 38.0033Z" fill="#523C14"/>
<path d="M46.7508 15.0552C44.2902 16.5461 40.3178 17.8911 37.534 18.6313L37.3359 17.8911C37.9407 17.6409 40.3282 16.9736 40.8391 16.7338C41.84 16.2646 42.768 15.5243 43.4978 14.7007C43.7897 14.3566 44.5404 13.1263 44.8741 13.0638C45.4788 12.9491 45.8437 13.8145 46.1982 14.2002C46.4276 14.4609 47.1365 14.7528 46.7508 15.0552Z" fill="#523C14"/>
<path d="M40.4023 6.74576C40.517 9.3106 41.4554 11.9171 44.3017 12.3446C43.7908 11.4792 43.4989 10.5722 43.3112 9.58168C43.2591 9.3106 43.3217 9.00824 43.28 8.71631C43.1027 7.70497 41.445 6.53724 40.4023 6.74576Z" fill="#523C14"/>
<path d="M65.6332 41.0583C64.7991 40.8811 64.1005 40.8081 63.2977 41.1522C63.0475 41.5171 64.5384 42.3095 64.7887 42.5076C65.237 42.8516 65.654 43.2478 66.0607 43.644C66.7384 43.1227 67.2701 42.5597 68.198 42.9559C68.834 41.3607 66.5924 38.6186 65.6332 41.0583Z" fill="#523C14"/>
<path d="M72.1073 42.7048C72.3992 40.2964 70.0638 39.2746 68.0098 39.4519C67.8951 39.5457 68.823 40.6196 68.9273 40.7864C69.2401 41.3077 69.5007 41.9437 69.6259 42.538C70.4495 42.611 71.0334 43.1636 71.7424 43.4555C71.9196 43.393 72.0864 42.8821 72.1073 42.7048Z" fill="#523C14"/>
<path d="M60.8467 40.7561C61.0448 41.0376 61.4097 40.8291 61.5557 40.5476C62.5358 38.6709 62.64 34.49 62.2751 32.4256C62.1396 31.6541 61.8685 29.8921 61.0031 29.7461C61.7538 32.8531 61.9206 35.616 61.2534 38.7439C61.1595 39.1818 60.6278 40.4538 60.8467 40.7561Z" fill="#523C14"/>
<path d="M55.1953 15.9416C58.7089 17.7766 60.9297 20.9461 62.5145 24.4806C62.6709 24.8247 63.1192 26.2635 63.3694 26.3365C63.6718 26.4303 63.7969 26.2948 63.8073 26.0028C63.8282 25.492 63.0462 23.6674 62.7856 23.1148C61.2529 19.9452 58.5108 17.1197 55.2474 15.7539L55.1953 15.9416Z" fill="#523C14"/>
<path d="M74.5465 44.4471C74.2442 44.9267 73.9314 45.4167 73.5039 45.8025C74.1816 46.3133 74.3276 46.9493 74.0982 47.7521C76.0896 47.3664 76.955 44.9371 76.2147 43.1855C75.6204 41.7467 74.901 43.8632 74.5465 44.4471Z" fill="#523C14"/>
<path d="M53.5492 17.2443C53.5179 17.2547 53.3511 17.3903 53.4449 17.4424C55.6032 18.5267 57.4382 20.612 58.5538 22.7389C58.7727 23.1664 59.5443 25.2516 59.6485 25.3454C59.9196 25.5853 60.2637 25.5018 60.3054 25.0952C60.4096 24.0526 58.5225 21.0499 57.7927 20.1949C57.1567 19.4547 54.5397 17.0149 53.5492 17.2443Z" fill="#523C14"/>
<path d="M53.8189 12.7728C53.7042 12.8875 53.5061 13.4505 53.2976 13.7008C52.5052 14.5974 50.8579 15.004 49.7006 15.0562C50.2636 15.5358 51.4313 15.6088 52.1403 15.5462C52.9639 15.4732 54.4966 14.7747 55.1535 14.2534C56.9363 12.825 54.4549 12.1681 53.8189 12.7728Z" fill="#523C14"/>
<path d="M32.7285 5.85933C33.4583 6.09913 34.9493 5.22334 35.7938 4.99396C37.0762 4.63947 38.515 4.46223 39.8392 4.54563C40.1519 4.56649 41.6429 5.03566 41.4761 4.41009C41.351 3.93049 39.5994 3.76367 39.1719 3.76367C37.4933 3.76367 34.6365 4.37882 33.1247 5.11907C32.7494 5.31717 31.9883 5.6091 32.7285 5.85933Z" fill="#523C14"/>
<path d="M52.2993 7.78835C52.3305 7.99688 52.6746 8.24711 52.758 8.53904C52.8414 8.83097 52.7163 9.14376 52.9561 9.34186C53.9674 8.49734 54.7181 7.22534 54.593 5.85951C53.9362 5.50503 53.2376 5.51545 52.5078 5.54673C52.7059 6.19315 52.2263 7.27747 52.2993 7.78835Z" fill="#523C14"/>
<path d="M49.7546 5.33794C50.3281 6.00521 50.3176 6.91229 50.2968 7.74638C50.8389 7.51701 51.4437 7.4753 51.6522 6.84973C51.965 5.89052 51.8294 4.46214 50.9328 3.85742L49.4001 4.95217C49.3376 5.21282 49.5982 5.16069 49.7546 5.33794Z" fill="#523C14"/>
<path d="M73.2014 44.3011C73.2431 44.4471 73.1388 44.4784 73.3995 44.4471L75.1824 41.7154C74.5047 40.7979 73.3891 40.4747 72.2943 40.3496C72.9407 41.069 73.1597 41.8301 73.0971 42.7998C73.0763 43.05 72.9095 43.3002 72.9199 43.4879C72.9303 43.5713 73.1388 44.1135 73.2014 44.3011Z" fill="#523C14"/>
<path d="M44.2487 4.8477C44.6449 4.92069 45.0932 5.65052 45.3955 5.49413C45.5728 5.41072 46.1149 4.806 46.1045 4.59747C46.0941 4.43066 45.4268 3.53401 45.2704 3.37761C45.1766 3.28378 44.5927 2.80417 44.5093 2.78332C43.8733 2.60608 43.1226 4.58705 42.9037 5.0458C43.3729 4.95196 43.7274 4.75387 44.2487 4.8477Z" fill="#523C14"/>
<path d="M30.601 19.6533C30.4237 19.4761 29.1413 20.2684 28.9119 20.4144C27.4627 21.3215 26.0134 22.6873 25.5026 24.3555C26.4096 23.2816 27.3897 22.3433 28.5679 21.5717C29.3394 21.0608 30.7469 20.7376 30.601 19.6533Z" fill="#523C14"/>
<path d="M52.6004 10.5404C52.9966 10.5925 53.372 11.0096 53.5388 11.3536C53.6431 11.5517 53.5179 11.9375 53.8412 11.9479C54.6023 11.9583 55.6762 10.3944 55.1965 9.99822C54.8004 9.66458 52.4857 9.44563 52.6004 10.5404Z" fill="#523C14"/>
<path d="M49.096 4.59837C48.4079 3.50362 46.6251 2.66953 46.6146 4.64008C47.0525 4.54624 47.9804 5.34906 48.2411 5.3282C48.5018 5.30735 48.8771 4.77562 49.096 4.59837Z" fill="#523C14"/>
<path d="M51.4323 8.26788C50.984 8.17404 49.7745 9.17495 49.8997 9.74839C50.692 9.63371 51.2968 9.96734 51.9953 10.2488C52.0996 9.89436 52.256 9.71711 52.1726 9.32092C52.1309 9.08112 51.6721 8.30958 51.4323 8.26788Z" fill="#523C14"/>
<path d="M38.1488 6.46372C37.7526 6.45329 35.5735 6.91204 35.6152 7.37079L35.8029 7.694L36.1469 7.75656L38.889 7.04758C38.9829 6.60968 38.472 6.47414 38.1488 6.46372Z" fill="#523C14"/>
<path d="M43.0495 6.74623C43.0703 6.80878 43.5187 7.4135 43.5916 7.48648C43.6751 7.56989 43.6646 7.58032 43.8002 7.54904L44.4883 6.0998C43.9878 5.52636 42.7784 5.95384 43.0495 6.74623Z" fill="#523C14"/>
<path d="M67.4787 44.0708C66.8635 44.248 67.145 45.1238 67.7289 45.03C68.3545 44.9362 68.2085 43.8518 67.4787 44.0708Z" fill="#523C14"/>
<path d="M72.0767 44.874C71.6597 44.4674 70.8673 44.9887 71.2947 45.51C71.7014 46.0209 72.5355 45.3223 72.0767 44.874Z" fill="#523C14"/>
<path d="M69.2938 46.3132L69.9923 46.4383C70.4719 45.354 68.8142 45.1246 69.2938 46.3132Z" fill="#523C14"/>
<path d="M69.7396 43.5813C69.2183 43.5187 69.0411 44.1338 69.333 44.4258C69.8022 44.9158 70.5946 43.6855 69.7396 43.5813Z" fill="#523C14"/>
<path d="M18.6723 29.1732C18.2865 28.8395 17.5046 29.4338 18.0363 29.8613C18.5576 30.2783 19.0164 29.4755 18.6723 29.1732Z" fill="#523C14"/>
<path d="M17.5054 31.6635C17.3386 31.7677 17.1822 32.581 17.9329 32.4454C18.694 32.3203 18.0684 31.309 17.5054 31.6635Z" fill="#523C14"/>
<path d="M19.2874 31.102C19.1518 31.9882 20.6532 31.4565 20.0589 30.8726C19.8191 30.6328 19.3499 30.7371 19.2874 31.102Z" fill="#523C14"/>
<path d="M72.5555 47.554C73.3374 47.6687 73.2019 46.5531 72.4721 46.772C72.0759 46.8867 72.1176 47.4914 72.5555 47.554Z" fill="#523C14"/>
<path d="M20.3304 29.3392C20.7892 29.1828 20.5181 28.5364 20.0593 28.5781C19.4338 28.6198 19.6736 29.5582 20.3304 29.3392Z" fill="#523C14"/>
<path d="M22.0206 32.5708C21.6453 32.9357 22.2813 33.4987 22.6671 33.1233C23.0215 32.7793 22.4585 32.1537 22.0206 32.5708Z" fill="#523C14"/>
<path d="M22.0833 30.6628C21.9165 30.4126 21.0824 30.6211 21.343 31.1424C21.6037 31.6742 22.4169 31.1946 22.0833 30.6628Z" fill="#523C14"/>
<path d="M20.8834 33.2387C21.1545 32.8112 20.456 32.2482 20.1432 32.7487C19.82 33.27 20.7062 33.5202 20.8834 33.2387Z" fill="#523C14"/>
<path d="M71.1053 47.7102C71.8143 47.5225 71.1783 46.459 70.73 46.9803C70.511 47.2201 70.7404 47.804 71.1053 47.7102Z" fill="#523C14"/>
<path d="M18.6838 28.0362C19.08 27.3898 17.7038 27.1396 17.9123 27.8798C18.0061 28.2135 18.5796 28.2031 18.6838 28.0362Z" fill="#523C14"/>
<path d="M15.8896 26.9938C15.4517 27.2648 15.8687 27.9425 16.3796 27.6298C16.6611 27.4525 16.3587 26.7018 15.8896 26.9938Z" fill="#523C14"/>
<path d="M47.2838 30.6529C47.2838 30.6529 49.5671 33.6765 54.5613 29.7771V29.7667C54.9471 29.5582 55.9897 28.8492 56.3025 28.7032C60.1601 26.8787 63.8927 28.9535 65.759 32.4462C66.7182 34.25 66.8329 35.5845 66.812 37.6072C66.812 37.7949 66.6869 38.0347 66.7182 38.1806C66.812 38.5664 67.3542 38.4413 67.6044 38.3057C68.8243 32.4984 63.7572 26.3469 57.6787 27.0768C57.0427 27.1497 55.5309 27.7545 54.6343 28.38V28.3592C52.8201 29.7042 50.3387 32.2586 47.2838 30.6529Z" fill="#523C14"/>
<path d="M30.3494 65.7574C28.1182 65.7887 27.649 65.82 27.0756 66.237C27.0756 66.237 27.6073 64.7878 30.193 64.7773L30.3494 65.7574Z" fill="#523C14"/>
<path d="M26.7027 16.4115C26.8382 17.4958 24.9302 20.3213 24.3464 21.8748C23.7625 23.4178 24.117 25.0443 24.117 25.0443C24.117 25.0443 24.5653 23.1989 26.0667 21.0303C27.568 18.8616 27.3282 17.5166 26.7027 16.4115Z" fill="#523C14"/>
<path d="M24.0935 45.3535C25.5115 48.5126 27.8991 50.5979 30.9748 51.9846C27.4195 52.1201 23.9892 48.9505 24.0935 45.3535Z" fill="#523C14"/>
<path d="M21.1968 44.655C22.3854 49.8263 25.8573 53.8717 31.1016 55.1124C30.4448 55.102 29.7775 55.0811 29.1102 54.9769C24.3038 54.2783 20.8631 49.3363 21.1968 44.655Z" fill="#523C14"/>
</svg>
